<?xml version="1.0" encoding="utf-8"?>
<!-- Generator: Adobe Illustrator 22.1.0, SVG Export Plug-In . SVG Version: 6.00 Build 0)  -->
<svg version="1.1" xmlns="http://www.w3.org/2000/svg" xmlns:xlink="http://www.w3.org/1999/xlink" x="0px" y="0px"
	 viewBox="0 0 841.9 595.3" style="enable-background:new 0 0 841.9 595.3;" xml:space="preserve">
<style type="text/css">
	.st0{display:none;}
	.st1{display:inline;}
	.st2{fill:#61DAFB;}
	.st3{display:none;fill:#FFFFFF;stroke:#000000;stroke-width:0.75;stroke-miterlimit:10;}
	.st4{fill:#7C5545;}
	.st5{fill:#069AED;stroke:#0071BC;stroke-width:0.5;stroke-miterlimit:10;}
	.st6{fill:url(#SVGID_1_);}
	.st7{fill:#D486F4;}
	.st8{fill:#FFFFFF;stroke:#000000;stroke-miterlimit:10;}
	.st9{fill:#069AED;}
	.st10{fill:#FFFFFF;stroke:#000000;stroke-width:0.5;stroke-miterlimit:10;}
	.st11{fill:#FFFFFF;stroke:#000000;stroke-width:0.25;stroke-miterlimit:10;}
</style>
<g id="Layer_1" class="st0">
	<g class="st1">
		<path class="st2" d="M666.3,296.5c0-32.5-40.7-63.3-103.1-82.4c14.4-63.6,8-114.2-20.2-130.4c-6.5-3.8-14.1-5.6-22.4-5.6v22.3
			c4.6,0,8.3,0.9,11.4,2.6c13.6,7.8,19.5,37.5,14.9,75.7c-1.1,9.4-2.9,19.3-5.1,29.4c-19.6-4.8-41-8.5-63.5-10.9
			c-13.5-18.5-27.5-35.3-41.6-50c32.6-30.3,63.2-46.9,84-46.9V78c-27.5,0-63.5,19.6-99.9,53.6c-36.4-33.8-72.4-53.2-99.9-53.2v22.3
			c20.7,0,51.4,16.5,84,46.6c-14,14.7-28,31.4-41.3,49.9c-22.6,2.4-44,6.1-63.6,11c-2.3-10-4-19.7-5.2-29
			c-4.7-38.2,1.1-67.9,14.6-75.8c3-1.8,6.9-2.6,11.5-2.6V78.5c-8.4,0-16,1.8-22.6,5.6c-28.1,16.2-34.4,66.7-19.9,130.1
			c-62.2,19.2-102.7,49.9-102.7,82.3c0,32.5,40.7,63.3,103.1,82.4c-14.4,63.6-8,114.2,20.2,130.4c6.5,3.8,14.1,5.6,22.5,5.6
			c27.5,0,63.5-19.6,99.9-53.6c36.4,33.8,72.4,53.2,99.9,53.2c8.4,0,16-1.8,22.6-5.6c28.1-16.2,34.4-66.7,19.9-130.1
			C625.8,359.7,666.3,328.9,666.3,296.5L666.3,296.5z M536.1,229.8c-3.7,12.9-8.3,26.2-13.5,39.5c-4.1-8-8.4-16-13.1-24
			c-4.6-8-9.5-15.8-14.4-23.4C509.3,224,523,226.6,536.1,229.8L536.1,229.8z M490.3,336.3c-7.8,13.5-15.8,26.3-24.1,38.2
			c-14.9,1.3-30,2-45.2,2c-15.1,0-30.2-0.7-45-1.9c-8.3-11.9-16.4-24.6-24.2-38c-7.6-13.1-14.5-26.4-20.8-39.8
			c6.2-13.4,13.2-26.8,20.7-39.9c7.8-13.5,15.8-26.3,24.1-38.2c14.9-1.3,30-2,45.2-2c15.1,0,30.2,0.7,45,1.9
			c8.3,11.9,16.4,24.6,24.2,38c7.6,13.1,14.5,26.4,20.8,39.8C504.7,309.8,497.8,323.2,490.3,336.3L490.3,336.3z M522.6,323.3
			c5.4,13.4,10,26.8,13.8,39.8c-13.1,3.2-26.9,5.9-41.2,8c4.9-7.7,9.8-15.6,14.4-23.7C514.2,339.4,518.5,331.3,522.6,323.3
			L522.6,323.3z M421.2,430c-9.3-9.6-18.6-20.3-27.8-32c9,0.4,18.2,0.7,27.5,0.7c9.4,0,18.7-0.2,27.8-0.7
			C439.7,409.7,430.4,420.4,421.2,430z M346.8,371.1c-14.2-2.1-27.9-4.7-41-7.9c3.7-12.9,8.3-26.2,13.5-39.5c4.1,8,8.4,16,13.1,24
			S341.9,363.5,346.8,371.1z M420.7,163c9.3,9.6,18.6,20.3,27.8,32c-9-0.4-18.2-0.7-27.5-0.7c-9.4,0-18.7,0.2-27.8,0.7
			C402.2,183.3,411.5,172.6,420.7,163z M346.7,221.9c-4.9,7.7-9.8,15.6-14.4,23.7c-4.6,8-8.9,16-13,24c-5.4-13.4-10-26.8-13.8-39.8
			C318.6,226.7,332.4,224,346.7,221.9L346.7,221.9z M256.2,347.1c-35.4-15.1-58.3-34.9-58.3-50.6s22.9-35.6,58.3-50.6
			c8.6-3.7,18-7,27.7-10.1c5.7,19.6,13.2,40,22.5,60.9c-9.2,20.8-16.6,41.1-22.2,60.6C274.3,354.2,264.9,350.8,256.2,347.1
			L256.2,347.1z M310,490c-13.6-7.8-19.5-37.5-14.9-75.7c1.1-9.4,2.9-19.3,5.1-29.4c19.6,4.8,41,8.5,63.5,10.9
			c13.5,18.5,27.5,35.3,41.6,50c-32.6,30.3-63.2,46.9-84,46.9C316.8,492.6,313,491.7,310,490L310,490z M547.2,413.8
			c4.7,38.2-1.1,67.9-14.6,75.8c-3,1.8-6.9,2.6-11.5,2.6c-20.7,0-51.4-16.5-84-46.6c14-14.7,28-31.4,41.3-49.9
			c22.6-2.4,44-6.1,63.6-11C544.3,394.8,546.1,404.5,547.2,413.8z M585.7,347.1c-8.6,3.7-18,7-27.7,10.1
			c-5.7-19.6-13.2-40-22.5-60.9c9.2-20.8,16.6-41.1,22.2-60.6c9.9,3.1,19.3,6.5,28.1,10.2c35.4,15.1,58.3,34.9,58.3,50.6
			C644,312.2,621.1,332.1,585.7,347.1L585.7,347.1z"/>
		<circle class="st2" cx="420.9" cy="296.5" r="45.7"/>
		<path class="st2" d="M520.5,78.1"/>
	</g>
</g>
<g id="Layer_2">
	<circle class="st3" cx="391.5" cy="415.5" r="149"/>
	<path class="st4" d="M421.3,299.1l84.2-84.2c-18.1-33.7-53.7-56.7-94.6-56.7c-59.3,0-107.4,48.1-107.4,107.4
		s48.1,107.4,107.4,107.4c23.8,0,45.7-7.7,63.5-20.8L421.3,299.1z"/>
	<circle class="st5" cx="486.2" cy="298.4" r="4.4"/>
	<circle class="st5" cx="521.9" cy="339.4" r="4.4"/>
	<circle class="st5" cx="541.4" cy="392.4" r="4.4"/>
	<g class="st0">
		
			<image style="display:inline;overflow:visible;opacity:0.3;" width="529" height="136" xlink:href="92B4CEF04F6696DC.png"  transform="matrix(1 0 0 1 157 390.3)">
		</image>
		<g class="st1">
			<g>
				<linearGradient id="SVGID_1_" gradientUnits="ownerSpaceOnUse" x1="172.2142" y1="466.433" x2="670.6038" y2="466.433">
					<stop  offset="0" style="stop-color:#D486F4"/>
					<stop  offset="6.702015e-02" style="stop-color:#DB92F3"/>
					<stop  offset="0.1996" style="stop-color:#E5A3F3"/>
					<stop  offset="0.3443" style="stop-color:#EBADF2"/>
					<stop  offset="0.5225" style="stop-color:#EDB0F2"/>
					<stop  offset="0.6804" style="stop-color:#EBADF2"/>
					<stop  offset="0.8164" style="stop-color:#E5A2F3"/>
					<stop  offset="0.9439" style="stop-color:#DA90F4"/>
					<stop  offset="1" style="stop-color:#D486F4"/>
				</linearGradient>
				<path class="st6" d="M670.6,424.4H172.2v62.4v0.2c0,0.2,0,0.1,0,0.3c0,11.7,111.6,21.2,249.2,21.2s249.2-9.5,249.2-21.2
					c0-0.2,0-0.2,0-0.3v-0.1V424.4z"/>
				<ellipse class="st7" cx="421.4" cy="423.8" rx="249.2" ry="21.2"/>
			</g>
		</g>
	</g>
	<path class="st8" d="M353.1,227.3c19.1-19.3,49-23.4,66.2-9.4l-37.6,38.2L353.1,227.3z"/>
	<path class="st9" d="M381.7,253.8l13.1-13.3c-2.9-7.1-7.5-13.5-15.1-16.2c-8.3-2.9-15.9-0.8-15.9,11.4L381.7,253.8z"/>
	<g>
		<circle class="st10" cx="379.6" cy="238.5" r="4.4"/>
		<circle class="st11" cx="379.6" cy="238.5" r="2.6"/>
	</g>
	<circle class="st5" cx="535.8" cy="462.1" r="4.4"/>
	<circle class="st5" cx="512" cy="507.9" r="4.4"/>
	<circle class="st5" cx="475.6" cy="542.6" r="4.4"/>
	<circle class="st5" cx="442.1" cy="559.5" r="4.4"/>
	<circle class="st5" cx="386.9" cy="566.7" r="4.4"/>
	<circle class="st5" cx="329" cy="553.9" r="4.4"/>
	<circle class="st5" cx="280.4" cy="518.8" r="4.4"/>
	<circle class="st5" cx="249.5" cy="467.2" r="4.4"/>
	<circle class="st5" cx="240.3" cy="407.2" r="4.4"/>
	<circle class="st5" cx="297.7" cy="299.2" r="4.4"/>
	<circle class="st5" cx="255.7" cy="351.7" r="4.4"/>
</g>
</svg>
